<svg width="390" height="283" viewBox="0 0 390 283" fill="none" xmlns="http://www.w3.org/2000/svg">
<path d="M377.007 234.873L376.701 234.568C375.646 233.504 374.094 233.129 372.673 233.582L-7.46094 354.742C-9.28335 355.326 -10.4256 357.123 -10.1989 359.023C-10.1815 359.154 -10.164 359.285 -10.1553 359.416C-9.86758 361.892 -7.37375 363.479 -5.002 362.721L375.393 241.482C378.227 240.576 379.108 237.001 377.007 234.89V234.873Z" fill="#3BFF29"/>
<path d="M439.561 135.312L321.227 19.5407C315.812 14.2392 307.249 13.9253 301.451 18.8083L254.138 58.6571C247.554 64.2028 247.11 74.1781 253.17 80.2819L356.751 184.656C360.64 188.58 366.403 189.993 371.67 188.31L438.253 167.086C447.357 164.183 451.324 153.518 446.337 145.374L442.195 138.608C441.454 137.404 440.573 136.297 439.561 135.303V135.312Z" fill="#3BFF29"/>
<path d="M-14.1838 331.696L349.801 215.681C352.635 214.774 353.516 211.199 351.414 209.089L351.353 209.028C350.298 207.964 348.746 207.589 347.325 208.042L-16.634 324.049C-18.9447 324.79 -20.0696 327.406 -18.9971 329.586C-18.9883 329.612 -18.9709 329.638 -18.9622 329.656C-18.0902 331.426 -16.0672 332.298 -14.1838 331.705V331.696Z" fill="#3BFF29"/>
<path d="M322.831 180.279L235.826 92.6116C230.167 86.9089 221.09 86.5079 214.952 91.6786L132.036 161.523C131.766 161.759 131.496 161.994 131.234 162.247L81.5843 210.371C81.1221 210.824 80.6774 211.304 80.2763 211.809L38.1778 264.441C33.3471 270.475 33.7395 279.151 39.0759 284.732C43.1393 288.978 49.2692 290.548 54.876 288.769L316.553 205.836C327.549 202.349 330.967 188.467 322.84 180.279H322.831Z" fill="#3BFF29"/>
<path d="M12.5332 4.22015L125.278 118.709C131.67 125.197 141.977 125.676 148.944 119.808L238.547 44.3306C246.325 37.7821 246.874 25.9932 239.742 18.7471L129.769 -92.9344C123.535 -99.2648 113.533 -99.9014 106.557 -94.408L14.1813 -21.747C6.00222 -15.3206 5.23488 -3.20899 12.5332 4.20272V4.22015Z" fill="#3BFF29"/>
<path d="M-132.763 105.159L8.69659 252.992C12.0798 256.533 17.8086 256.28 20.8692 252.452L58.9567 204.834C61.5203 201.634 61.2849 197.012 58.4074 194.091L-75.5702 58.0294C-78.4652 55.0909 -83.104 54.7944 -86.3478 57.3492L-131.917 93.1958C-135.675 96.1518 -136.067 101.706 -132.763 105.159Z" fill="#3BFF29"/>
<path d="M-101.668 278.183C-71.2889 278.183 -44.3451 292.885 -27.5511 315.556L23.8339 299.18L-219 45.4119V239.163L-143.889 288.411C-131.237 281.88 -116.884 278.192 -101.668 278.192V278.183Z" fill="#3BFF29"/>
<path d="M77.8348 184.813L113.882 150.144C117.518 146.647 117.596 140.849 114.056 137.247L-12.0649 9.16427C-15.3086 5.87696 -20.4968 5.54562 -24.1242 8.39695L-63.6766 39.5087C-67.9231 42.8483 -68.3242 49.1439 -64.5311 52.9893L65.0954 184.63C68.5745 188.17 74.2598 188.249 77.8348 184.804V184.813Z" fill="#3BFF29"/>
<path d="M380.791 205.801L539.218 155.306C540.866 154.783 541.991 153.248 541.991 151.513V151.426C541.991 148.731 539.367 146.813 536.803 147.633L378.306 198.146C375.472 199.052 374.591 202.628 376.693 204.738L376.754 204.799C377.809 205.863 379.361 206.237 380.782 205.784L380.791 205.801Z" fill="#3BFF29"/>
<path d="M542 401.122L422.218 280.433L278.143 420.166L421.904 566.159L542 449.682V401.122Z" fill="#3BFF29"/>
<path d="M400.794 258.843L394.629 252.626C392.17 250.141 388.525 249.252 385.194 250.315L190.859 312.251C184.241 314.361 182.183 322.706 187.049 327.659L256.928 398.628C260.52 402.273 266.371 402.343 270.042 398.776L400.663 272.088C404.386 268.478 404.439 262.523 400.785 258.843H400.794Z" fill="#3BFF29"/>
<path d="M337.942 -11.9285C330.042 -5.27544 329.589 6.74897 336.975 13.9776L450.051 124.595C451.943 126.444 453.6 128.528 454.986 130.786L463.689 144.999C467.9 151.87 476.254 154.983 483.936 152.533L529.81 137.91C537.073 135.599 542 128.85 542 121.229V93.8322C542 89.237 540.195 84.8248 536.969 81.5462L407.778 -49.6498C401.361 -56.1634 391.019 -56.643 384.026 -50.7572L337.942 -11.9373V-11.9285Z" fill="#3BFF29"/>
<path d="M135.419 -117.105L269.075 18.6251L381.637 -76.1925L274.411 -185.075H221.823L135.419 -117.105Z" fill="#3BFF29"/>
<path d="M91.0887 182.215L89.0657 184.002L88.0019 182.799L93.3471 178.064L94.4109 179.268L92.3879 181.055L96.8437 186.086L95.5445 187.237L91.0887 182.206V182.215Z" fill="#3BFF29"/>
<path d="M104.343 179.459L102.825 180.802L101.526 179.852C100.506 179.119 99.8432 179.154 99.0149 179.887L98.7446 180.122L100.872 182.529L99.5729 183.68L94.0534 177.445L96.7739 175.03C97.9424 174.001 99.5642 174.018 100.55 175.134C101.299 175.98 101.369 177.096 100.82 178.073C101.378 177.846 102.032 177.951 102.66 178.352L104.334 179.459H104.343ZM99.0323 177.733C99.5729 177.253 99.6601 176.721 99.2765 176.285C98.8754 175.832 98.3086 175.841 97.7767 176.312L96.4339 177.506L97.6982 178.928L99.041 177.733H99.0323Z" fill="#3BFF29"/>
<path d="M107.839 173.949L105.31 176.19L105.964 178.021L104.639 179.198L101.674 170.696L102.834 169.667L110.917 173.635L109.583 174.821L107.839 173.949ZM106.383 173.216L103.793 171.917L104.761 174.646L106.383 173.207V173.216Z" fill="#3BFF29"/>
<path d="M110.743 162.674L113.821 171.071L112.644 172.109L104.683 168.037L106.078 166.798L111.528 169.667L109.348 163.904L110.734 162.674H110.743Z" fill="#3BFF29"/>
<path d="M111.362 162.116L115.521 158.436L116.585 159.64L113.725 162.168L114.859 163.45L116.986 161.567L118.015 162.726L115.887 164.61L117.117 165.996L119.977 163.468L121.041 164.671L116.881 168.351L111.362 162.116Z" fill="#3BFF29"/>
<path d="M120.692 160.947C121.503 161.575 122.462 161.505 123.317 160.756C124.093 160.067 124.311 159.413 123.91 158.959C123.552 158.558 123.081 158.645 121.468 159.483C119.715 160.381 118.625 160.381 117.814 159.465C116.864 158.393 117.126 156.788 118.46 155.602C119.75 154.46 121.451 154.312 122.654 155.245L121.625 156.596C120.988 156.143 120.169 156.23 119.524 156.806C118.948 157.32 118.765 157.939 119.088 158.305C119.436 158.628 119.689 158.567 121.32 157.756C123.177 156.823 124.328 156.823 125.2 157.817C126.238 158.994 125.906 160.607 124.38 161.959C122.881 163.284 121.041 163.424 119.663 162.308L120.692 160.956V160.947Z" fill="#3BFF29"/>
<path d="M126.377 155.916C127.188 156.544 128.147 156.474 129.002 155.724C129.778 155.036 129.996 154.382 129.595 153.928C129.237 153.527 128.766 153.614 127.153 154.451C125.401 155.349 124.311 155.349 123.5 154.434C122.549 153.361 122.811 151.757 124.145 150.571C125.435 149.429 127.136 149.281 128.339 150.214L127.31 151.565C126.674 151.112 125.854 151.199 125.209 151.774C124.633 152.289 124.45 152.908 124.773 153.274C125.122 153.597 125.374 153.536 127.005 152.725C128.862 151.792 130.013 151.792 130.885 152.786C131.923 153.963 131.592 155.576 130.066 156.928C128.566 158.253 126.726 158.393 125.348 157.276L126.377 155.925V155.916Z" fill="#3BFF29"/>
<path d="M127.781 147.58L131.94 143.901L133.004 145.104L130.144 147.633L131.278 148.914L133.405 147.031L134.434 148.191L132.307 150.074L133.536 151.461L136.396 148.932L137.46 150.135L133.301 153.815L127.781 147.58Z" fill="#3BFF29"/>
<path d="M143.119 145.13L141.602 146.473L140.303 145.522C139.282 144.79 138.62 144.825 137.791 145.557L137.521 145.793L139.649 148.199L138.349 149.35L132.83 143.116L135.559 140.7C136.727 139.672 138.349 139.689 139.335 140.805C140.085 141.651 140.154 142.767 139.605 143.744C140.163 143.517 140.817 143.622 141.445 144.023L143.119 145.13ZM137.809 143.404C138.349 142.924 138.437 142.392 138.053 141.947C137.652 141.494 137.085 141.503 136.553 141.974L135.21 143.168L136.475 144.589L137.817 143.395L137.809 143.404Z" fill="#3BFF29"/>
<path d="M146.616 139.619L144.087 141.86L144.741 143.691L143.415 144.869L140.451 136.367L141.61 135.338L149.694 139.305L148.359 140.491L146.616 139.619ZM145.159 138.887L142.57 137.588L143.537 140.317L145.159 138.878V138.887Z" fill="#3BFF29"/>
<path d="M149.301 128.528C151.106 126.923 153.242 127.133 154.96 129.077C156.678 131.022 156.626 133.167 154.821 134.762L152.632 136.698L147.113 130.464L149.301 128.528ZM150.243 129.845L149.467 130.533L152.859 134.361L153.635 133.672C154.821 132.626 154.812 131.501 153.678 130.22C152.545 128.938 151.429 128.789 150.243 129.845Z" fill="#3BFF29"/>
<path d="M153.094 125.171L157.254 121.491L158.317 122.694L155.457 125.223L156.591 126.505L158.718 124.621L159.747 125.781L157.62 127.665L158.849 129.051L161.709 126.522L162.773 127.726L158.614 131.405L153.094 125.171Z" fill="#3BFF29"/>
<path d="M168.005 117.166L170.943 120.488L170.141 121.195L169.592 120.837C169.531 121.604 169.156 122.302 168.484 122.904C166.793 124.403 164.595 124.02 162.869 122.075C161.142 120.122 161.029 117.898 162.729 116.407C163.418 115.797 164.168 115.483 164.979 115.483C165.79 115.483 166.54 115.771 167.238 116.364L166.156 117.654C165.345 117.027 164.465 117.018 163.802 117.611C162.886 118.422 163.052 119.651 164.186 120.924C165.311 122.197 166.514 122.52 167.429 121.7C168.188 121.029 168.345 120.131 167.787 119.433L166.261 120.785L165.232 119.625L168.014 117.166H168.005Z" fill="#3BFF29"/>
<path d="M176.82 115.283L175.303 116.625L174.004 115.675C172.984 114.943 172.321 114.977 171.493 115.71L171.222 115.945L173.35 118.352L172.051 119.503L166.531 113.268L169.26 110.853C170.429 109.824 172.051 109.842 173.036 110.958C173.786 111.804 173.856 112.92 173.306 113.896C173.864 113.67 174.518 113.774 175.146 114.175L176.82 115.283ZM171.51 113.556C172.051 113.077 172.138 112.545 171.754 112.109C171.353 111.655 170.786 111.664 170.255 112.135L168.912 113.329L170.176 114.751L171.519 113.556H171.51Z" fill="#3BFF29"/>
<path d="M173.838 106.014L171.44 105.769L172.992 104.4L175.033 104.958L173.838 106.014ZM180.317 109.78L177.788 112.021L178.442 113.853L177.117 115.03L174.152 106.528L175.312 105.499L183.395 109.467L182.061 110.652L180.317 109.78ZM178.861 109.048L176.271 107.749L177.239 110.478L178.861 109.039V109.048Z" fill="#3BFF29"/>
<path d="M180.404 100.756C181.093 100.145 181.843 99.8313 182.654 99.8313C183.465 99.8313 184.215 100.119 184.912 100.712L183.831 102.003C183.02 101.375 182.139 101.366 181.477 101.959C180.561 102.77 180.727 103.999 181.86 105.281C182.985 106.554 184.189 106.868 185.104 106.057C185.793 105.447 185.906 104.601 185.305 103.624L186.691 102.683C187.79 104.296 187.563 106.022 186.168 107.26C184.476 108.76 182.279 108.377 180.552 106.432C178.826 104.479 178.713 102.255 180.404 100.764V100.756Z" fill="#3BFF29"/>
<path d="M183.892 97.9044L185.191 96.7534L190.711 102.988L189.412 104.139L183.892 97.9044Z" fill="#3BFF29"/>
<path d="M194.539 97.1893L192.01 99.4303L192.664 101.261L191.339 102.439L188.374 93.9369L189.534 92.908L197.617 96.8754L196.283 98.0613L194.539 97.1893ZM193.083 96.4569L190.493 95.1576L191.461 97.8869L193.083 96.4481V96.4569Z" fill="#3BFF29"/>
<path d="M262.378 99.0989C263.014 99.7616 263.354 100.503 263.389 101.305C263.424 102.116 263.163 102.875 262.605 103.598L261.27 102.569C261.872 101.732 261.837 100.86 261.218 100.215C260.372 99.3343 259.143 99.5523 257.922 100.729C256.693 101.907 256.422 103.119 257.277 104.008C257.913 104.671 258.768 104.749 259.718 104.104L260.721 105.456C259.152 106.615 257.416 106.467 256.126 105.115C254.556 103.485 254.853 101.279 256.727 99.4738C258.611 97.6689 260.826 97.4683 262.387 99.0989H262.378Z" fill="#3BFF29"/>
<path d="M260.398 106.24L261.889 107.792L260.355 109.266L258.864 107.714L260.398 106.24Z" fill="#3BFF29"/>
<path d="M271.577 108.673C272.214 109.336 272.554 110.077 272.589 110.879C272.623 111.69 272.362 112.449 271.804 113.173L270.47 112.144C271.071 111.306 271.036 110.435 270.417 109.789C269.572 108.909 268.342 109.127 267.121 110.304C265.892 111.481 265.622 112.693 266.476 113.582C267.113 114.245 267.967 114.332 268.918 113.687L269.92 115.039C268.351 116.198 266.616 116.05 265.325 114.698C263.756 113.068 264.052 110.862 265.927 109.057C267.801 107.252 270.025 107.051 271.586 108.682L271.577 108.673Z" fill="#3BFF29"/>
<path d="M273.181 120.026L270.845 117.585L269.04 118.317L267.81 117.035L276.181 113.73L277.254 114.847L273.617 123.087L272.379 121.796L273.181 120.017V120.026ZM273.853 118.544L275.048 115.902L272.362 116.983L273.862 118.544H273.853Z" fill="#3BFF29"/>
<path d="M276.826 122.075C276.225 122.912 276.338 123.863 277.123 124.691C277.838 125.441 278.5 125.624 278.936 125.206C279.32 124.839 279.215 124.36 278.309 122.79C277.341 121.081 277.297 119.983 278.178 119.137C279.207 118.152 280.829 118.343 282.067 119.625C283.261 120.872 283.479 122.555 282.599 123.802L281.204 122.834C281.631 122.18 281.509 121.369 280.907 120.741C280.375 120.183 279.747 120.026 279.39 120.366C279.076 120.733 279.154 120.977 280.026 122.572C281.029 124.395 281.073 125.537 280.122 126.453C278.989 127.543 277.367 127.272 275.954 125.807C274.568 124.369 274.359 122.529 275.422 121.107L276.818 122.075H276.826Z" fill="#3BFF29"/>
<path d="M283.837 131.126L281.5 128.685L279.695 129.417L278.466 128.135L286.836 124.831L287.909 125.947L284.273 134.187L283.035 132.896L283.837 131.117V131.126ZM284.508 129.644L285.703 127.002L283.017 128.083L284.517 129.644H284.508Z" fill="#3BFF29"/>
<path d="M295.251 133.603L289.243 139.366L287.97 138.032L289.897 132.33L286.043 136.027L284.848 134.78L290.856 129.016L292.121 130.342L290.202 136.062L294.056 132.364L295.251 133.611V133.603Z" fill="#3BFF29"/>
<path d="M298.739 136.977C300.308 138.608 300.012 140.814 298.137 142.619C296.262 144.424 294.039 144.624 292.478 142.994C290.909 141.363 291.205 139.157 293.08 137.352C294.963 135.547 297.178 135.346 298.739 136.977ZM297.579 138.093C296.733 137.212 295.504 137.43 294.283 138.608C293.054 139.785 292.783 140.997 293.638 141.886C294.484 142.767 295.713 142.549 296.934 141.372C298.163 140.195 298.434 138.983 297.579 138.093Z" fill="#3BFF29"/>
<path d="M306.735 145.575L298.468 148.993L297.379 147.859L301.128 139.741L302.418 141.093L299.776 146.647L305.444 144.241L306.726 145.583L306.735 145.575Z" fill="#3BFF29"/>
<path d="M305.444 153.64L303.107 151.199L301.302 151.931L300.073 150.649L308.444 147.345L309.516 148.461L305.88 156.701L304.642 155.41L305.444 153.632V153.64ZM306.116 152.158L307.302 149.516L304.616 150.597L306.116 152.158Z" fill="#3BFF29"/>
<path d="M32.1961 34.678C32.8326 35.332 33.1902 36.0732 33.225 36.8754C33.2599 37.6776 33.0158 38.4449 32.4577 39.1687L31.1149 38.1485C31.7078 37.3027 31.6642 36.4307 31.0451 35.7942C30.1906 34.9135 28.9698 35.1489 27.7491 36.3348C26.5283 37.5206 26.2754 38.7414 27.13 39.6134C27.7665 40.2673 28.6298 40.3458 29.5715 39.6918L30.583 41.0347C29.0222 42.2118 27.2869 42.0723 25.9877 40.7295C24.4094 39.1076 24.6798 36.9015 26.5458 35.0791C28.4118 33.2567 30.6266 33.0475 32.2048 34.6606L32.1961 34.678Z" fill="#3BFF29"/>
<path d="M30.2691 41.8457L31.7688 43.3891L30.2429 44.8802L28.7431 43.3368L30.2691 41.8457Z" fill="#3BFF29"/>
<path d="M37.9772 50.199L35.6229 47.7836L33.8179 48.5248L32.5797 47.2517L40.9245 43.8772L42.0057 44.9846L38.4394 53.2508L37.1925 51.969L37.9772 50.1902V50.199ZM38.6312 48.7079L39.7996 46.0571L37.1227 47.1558L38.6312 48.7079Z" fill="#3BFF29"/>
<path d="M50.4987 53.7044L44.5344 59.5204L43.3573 58.3084L47.3596 54.402L43.4357 55.4396L43.0521 55.0472L44.1943 51.1583L40.192 55.0647L39.0149 53.8526L44.9791 48.0366L46.2958 49.3795L44.9966 53.5213L49.1994 52.3616L50.5074 53.6957L50.4987 53.7044Z" fill="#3BFF29"/>
<path d="M51.6671 54.8989L52.8791 56.1459L46.9149 61.9619L45.7029 60.715L51.6671 54.8989Z" fill="#3BFF29"/>
<path d="M55.8787 64.7958L52.7048 67.8912L51.9548 67.1239L52.2775 66.5571C51.5014 66.531 50.7951 66.1909 50.1586 65.5457C48.5803 63.9238 48.8507 61.7177 50.7167 59.8953C52.5827 58.0729 54.7975 57.8636 56.3757 59.4768C57.0123 60.1307 57.3698 60.8719 57.4046 61.6741C57.4482 62.4851 57.1954 63.2436 56.6373 63.9674L55.2945 62.9472C55.8874 62.1014 55.8438 61.2294 55.2247 60.5929C54.3702 59.7122 53.1494 59.9476 51.9287 61.1335C50.7079 62.3194 50.4551 63.5401 51.3096 64.4121C52.0159 65.1358 52.9227 65.2492 53.5941 64.6562L52.1728 63.2001L53.2803 62.1188L55.87 64.7783L55.8787 64.7958Z" fill="#3BFF29"/>
<path d="M62.0522 65.2928C63.6305 66.9147 63.3602 69.1207 61.4941 70.9431C59.6281 72.7656 57.4134 72.9748 55.8351 71.3617C54.2568 69.7398 54.5271 67.5338 56.3931 65.7113C58.2591 63.8889 60.474 63.6797 62.0522 65.2928ZM60.9012 66.4177C60.0467 65.537 58.8259 65.7724 57.6052 66.9583C56.3844 68.1442 56.1316 69.3649 56.9861 70.2369C57.8406 71.1175 59.0614 70.8821 60.2821 69.6962C61.5029 68.5104 61.7557 67.2896 60.9012 66.4177ZM63.8397 63.7407L65.2872 65.223L62.8806 65.2928L61.7645 64.1505L63.8397 63.7407Z" fill="#3BFF29"/>
<path d="M269.179 256.899L265.953 257.91L265.805 259.855L264.113 260.386L264.872 251.423L266.345 250.96L272.109 257.875L270.409 258.407L269.17 256.899H269.179ZM268.15 255.643L266.31 253.402L266.084 256.288L268.15 255.643Z" fill="#3BFF29"/>
<path d="M276.434 247.787L275.824 256.707L274.324 257.178L268.717 250.211L270.496 249.653L274.298 254.492L274.655 248.345L276.425 247.787H276.434Z" fill="#3BFF29"/>
<path d="M277.724 253.882L279.782 253.236L280.419 255.268L278.361 255.913L277.724 253.882Z" fill="#3BFF29"/>
<path d="M284.683 245.188C286.985 244.464 288.851 245.519 289.627 247.996C290.403 250.472 289.479 252.408 287.177 253.132L284.386 254.012L281.892 246.069L284.683 245.188ZM285.005 246.766L284.02 247.08L285.555 251.963L286.54 251.649C288.049 251.178 288.502 250.15 287.987 248.51C287.473 246.88 286.514 246.295 285.005 246.766Z" fill="#3BFF29"/>
<path d="M289.522 243.671L291.179 243.148L293.673 251.091L292.016 251.614L289.522 243.671Z" fill="#3BFF29"/>
<path d="M299.532 247.359L296.306 248.371L296.158 250.315L294.466 250.847L295.225 241.884L296.698 241.421L302.462 248.336L300.762 248.868L299.524 247.359H299.532ZM298.503 246.104L296.663 243.863L296.437 246.749L298.503 246.104Z" fill="#3BFF29"/>
<path d="M307.799 241.997L309.133 246.226L308.112 246.548L307.755 245.999C307.38 246.679 306.761 247.159 305.898 247.429C303.744 248.109 301.895 246.871 301.111 244.386C300.326 241.901 301.137 239.826 303.29 239.145C304.162 238.875 304.982 238.893 305.723 239.215C306.464 239.547 307.031 240.113 307.424 240.942L305.906 241.683C305.418 240.776 304.625 240.419 303.77 240.68C302.602 241.046 302.253 242.241 302.767 243.863C303.282 245.485 304.25 246.269 305.418 245.894C306.386 245.589 306.892 244.831 306.665 243.967L304.72 244.578L304.258 243.104L307.799 241.988V241.997Z" fill="#3BFF29"/>
<path d="M311.025 236.721C313.179 236.041 315.027 237.279 315.812 239.765C316.597 242.25 315.786 244.325 313.632 245.005C311.478 245.685 309.63 244.447 308.845 241.962C308.06 239.477 308.871 237.402 311.025 236.721ZM311.504 238.256C310.336 238.622 309.987 239.817 310.502 241.439C311.016 243.061 311.984 243.845 313.152 243.47C314.321 243.104 314.67 241.91 314.155 240.288C313.641 238.666 312.673 237.881 311.504 238.256Z" fill="#3BFF29"/>
<path d="M321.759 233.53L324.253 241.474L322.491 242.023L318.236 237.759L319.84 242.851L318.192 243.366L315.699 235.422L317.442 234.873L321.715 239.128L320.111 234.036L321.759 233.521V233.53Z" fill="#3BFF29"/>
<path d="M330.121 237.742L326.895 238.753L326.746 240.698L325.055 241.229L325.813 232.266L327.287 231.803L333.051 238.718L331.35 239.25L330.112 237.742H330.121ZM329.092 236.486L327.252 234.245L327.025 237.131L329.092 236.486Z" fill="#3BFF29"/>
<path d="M333.007 229.999L335.021 236.407L338.823 235.213L339.303 236.748L333.844 238.465L331.35 230.522L333.007 229.999Z" fill="#3BFF29"/>
</svg>
